<?xml version="1.0" encoding="UTF-8"?>
<svg version="1.1" xmlns="http://www.w3.org/2000/svg" width="512" height="512">
<path d="M0 0 C1.01790619 0.00215515 2.03581238 0.0043103 3.08456421 0.00653076 C17.69363523 0.05620146 32.02575853 0.30709809 46.375 3.3125 C47.34985352 3.51117676 48.32470703 3.70985352 49.32910156 3.91455078 C97.7109774 14.03517194 141.69928269 35.9516877 177.375 70.3125 C178.3640332 71.26068604 178.3640332 71.26068604 179.37304688 72.22802734 C188.86130305 81.37247479 197.6012044 90.66984009 205.375 101.3125 C206.23306152 102.46355017 207.09113451 103.61459177 207.94921875 104.765625 C213.98736829 112.95680614 219.34595521 121.47054105 224.375 130.3125 C224.73948242 130.94430176 225.10396484 131.57610352 225.47949219 132.22705078 C247.08534998 169.97532572 256.85198095 212.74189997 256.6875 255.9375 C256.68534485 256.95540619 256.6831897 257.97331238 256.68096924 259.02206421 C256.63129854 273.63113523 256.38040191 287.96325853 253.375 302.3125 C253.07698486 303.77478027 253.07698486 303.77478027 252.77294922 305.26660156 C242.65232806 353.6484774 220.7358123 397.63678269 186.375 433.3125 C185.74287598 433.97185547 185.11075195 434.63121094 184.45947266 435.31054688 C175.31502521 444.79880305 166.01765991 453.5387044 155.375 461.3125 C154.22394983 462.17056152 153.07290823 463.02863451 151.921875 463.88671875 C143.73224019 469.92427396 135.22961724 475.30707302 126.375 480.3125 C125.66778809 480.7146875 124.96057617 481.116875 124.23193359 481.53125 C101.09654164 494.5566741 75.92537591 503.30551461 49.9375 508.625 C49.21860596 508.77235596 48.49971191 508.91971191 47.7590332 509.0715332 C33.08339502 511.86090125 18.55831162 512.66142619 3.64770508 512.62817383 C0.70811513 512.6250221 -2.2304558 512.64854926 -5.16992188 512.67382812 C-18.54306192 512.71848737 -31.43916711 511.51301542 -44.625 509.3125 C-46.33055054 509.03031616 -46.33055054 509.03031616 -48.07055664 508.74243164 C-91.33802759 500.97044532 -132.38793216 480.98345309 -165.625 452.3125 C-166.37007813 451.67828125 -167.11515625 451.0440625 -167.8828125 450.390625 C-181.38779833 438.57948485 -194.05918743 425.82889772 -204.625 411.3125 C-205.48149066 410.16255169 -206.33826433 409.01281411 -207.1953125 407.86328125 C-213.23534209 399.67315742 -218.61867614 391.16870382 -223.625 382.3125 C-224.0271875 381.60528809 -224.429375 380.89807617 -224.84375 380.16943359 C-237.8691741 357.03404164 -246.61801461 331.86287591 -251.9375 305.875 C-252.08485596 305.15610596 -252.23221191 304.43721191 -252.3840332 303.6965332 C-255.35789088 288.05024391 -255.99800362 272.57681954 -255.9375 256.6875 C-255.93534485 255.66959381 -255.9331897 254.65168762 -255.93096924 253.60293579 C-255.88129854 238.99386477 -255.63040191 224.66174147 -252.625 210.3125 C-252.42632324 209.33764648 -252.22764648 208.36279297 -252.02294922 207.35839844 C-241.90232806 158.9765226 -219.9858123 114.98821731 -185.625 79.3125 C-184.99287598 78.65314453 -184.36075195 77.99378906 -183.70947266 77.31445312 C-174.56502521 67.82619695 -165.26765991 59.0862956 -154.625 51.3125 C-153.47394983 50.45443848 -152.32290823 49.59636549 -151.171875 48.73828125 C-142.98224019 42.70072604 -134.47961724 37.31792698 -125.625 32.3125 C-124.91778809 31.9103125 -124.21057617 31.508125 -123.48193359 31.09375 C-100.34654164 18.0683259 -75.17537591 9.31948539 -49.1875 4 C-48.46860596 3.85264404 -47.74971191 3.70528809 -47.0090332 3.5534668 C-31.36274391 0.57960912 -15.88931954 -0.06050362 0 0 Z M-159.92919922 90.65917969 C-160.48881348 91.20477539 -161.04842773 91.75037109 -161.625 92.3125 C-162.64707894 93.29432963 -163.66921121 94.27610374 -164.69140625 95.2578125 C-203.90602766 133.54524537 -228.96219319 190.31102303 -229.9609375 245.11328125 C-230.00153483 248.61743337 -230.00784806 252.12064525 -230 255.625 C-229.99945618 256.54325562 -229.99891235 257.46151123 -229.99835205 258.40759277 C-229.83771225 317.65926104 -206.62794273 374.14256115 -165.26513672 416.62548828 C-163.75886838 418.17480568 -162.2703131 419.73908294 -160.78515625 421.30859375 C-153.93259307 428.40265695 -146.50996089 434.42897339 -138.625 440.3125 C-138.05910156 440.73917969 -137.49320312 441.16585938 -136.91015625 441.60546875 C-87.72160154 478.52528464 -25.87144422 493.17024783 34.75 484.625 C69.46973491 479.37202819 102.61633525 466.51637207 131.375 446.3125 C132.04724609 445.84231445 132.71949219 445.37212891 133.41210938 444.88769531 C143.20824927 437.96477731 152.09774335 430.31638796 160.68798828 421.95263672 C162.23730568 420.44636838 163.80158294 418.9578131 165.37109375 417.47265625 C172.46515695 410.62009307 178.49147339 403.19746089 184.375 395.3125 C184.80167969 394.74660156 185.22835938 394.18070312 185.66796875 393.59765625 C215.34060296 354.06457744 230.86044452 306.31626713 230.75 257 C230.74945618 256.08174438 230.74891235 255.16348877 230.74835205 254.21740723 C230.58405363 193.61626377 206.5520553 137.57325401 164.375 94.3125 C163.39317037 93.29042106 162.41139626 92.26828879 161.4296875 91.24609375 C128.96053786 57.99065417 83.24499874 35.20764808 37.375 28.3125 C36.7046875 28.20502441 36.034375 28.09754883 35.34375 27.98681641 C-35.44664133 16.80291778 -108.75622512 40.85025574 -159.92919922 90.65917969 Z " fill="#D6A513" transform="translate(255.625,-0.3125)"/>
<path d="M0 0 C1.32608276 0.00737183 1.32608276 0.00737183 2.67895508 0.01489258 C14.83335289 0.23363809 25.40652397 4.28135353 34.49609375 12.52734375 C41.24053914 19.91873834 45.26552164 29.43111014 45.3125 39.4375 C45.2196875 41.355625 45.2196875 41.355625 45.125 43.3125 C44.21878906 43.725 43.31257813 44.1375 42.37890625 44.5625 C24.87264995 52.7532797 15.07206173 65.406693 8.125 83.3125 C7.71765625 84.35921875 7.3103125 85.4059375 6.890625 86.484375 C-0.26782142 106.36894839 -2.82979492 127.38671548 -4.875 148.3125 C-4.3903125 147.28511719 -3.905625 146.25773438 -3.40625 145.19921875 C4.59304239 128.53301779 13.92826555 113.82379156 32.125 107.3125 C42.11062601 104.44988511 55.71217996 104.99693372 65.125 109.3125 C66.03507813 109.72628906 66.94515625 110.14007813 67.8828125 110.56640625 C79.0312393 116.14061965 85.69260837 123.63373127 90.125 135.3125 C94.23100357 150.01909931 91.98043213 165.77882924 90.1875 180.6875 C90.00246752 182.27725227 89.81821969 183.86709606 89.63476562 185.45703125 C89.13852062 189.74303261 88.63260578 194.02782969 88.125 198.3125 C86.41119915 211.00923338 86.41119915 211.00923338 89.125 223.3125 C91.50137941 223.64671906 91.50137941 223.64671906 94.125 223.3125 C104.08506274 213.13219017 107.19011506 193.97600605 109.85742188 180.65405273 C110.08107422 179.61708252 110.30472656 178.5801123 110.53515625 177.51171875 C110.72215088 176.58190186 110.90914551 175.65208496 111.10180664 174.6940918 C112.45564681 171.54288424 114.06941831 170.74299152 117.125 169.3125 C120.65804764 169.01484397 123.97271911 169.70035078 127.125 171.375 C129.82606737 176.60831802 127.83038365 183.86628667 126.62109375 189.34375 C126.46266495 190.08887848 126.30423615 190.83400696 126.14100647 191.60171509 C125.62512626 194.00767835 125.09534007 196.41023952 124.5625 198.8125 C124.29131348 200.04803619 124.29131348 200.04803619 124.01464844 201.30853271 C108.70251597 270.86294924 108.70251597 270.86294924 82.4609375 288.15625 C72.42658804 293.12308519 59.20396942 292.74712324 48.65234375 289.3515625 C37.75326818 284.87064426 31.22218086 278.56995982 26.22265625 267.9921875 C13.508841 236.95419013 23.04658331 199.06692905 29.10595703 167.39990234 C30.44170357 160.38643121 31.60765113 153.4394812 32.125 146.3125 C29.73482725 146.09817411 29.73482725 146.09817411 27.125 146.3125 C8.2028273 164.81230277 7.65136476 208.38812995 7.03125 233.03930664 C6.99164293 236.88094499 6.98776111 240.72068839 7 244.5625 C6.99842529 245.92846696 6.99671493 247.29443377 6.99487305 248.66040039 C7.00125296 255.30100406 7.16310897 261.87933839 7.74194336 268.49609375 C8.75931017 280.22184957 8.75931017 280.22184957 5.0390625 284.7734375 C-4.82966 292.708696 -15.99776411 294.66509239 -28.25 294.625 C-29.71566406 294.64916992 -29.71566406 294.64916992 -31.2109375 294.67382812 C-41.28499164 294.6805263 -49.70651012 292.64479627 -57.46426392 285.93867493 C-61.94399972 280.77482173 -61.35535145 271.10379907 -61.7265625 264.61328125 C-61.79059265 263.5503183 -61.8546228 262.48735535 -61.92059326 261.3921814 C-62.12777068 257.80373447 -62.31683599 254.21475091 -62.5 250.625 C-62.56503723 249.36539459 -62.63007446 248.10578918 -62.69708252 246.80801392 C-63.96536853 221.23749574 -64.20850821 195.66591238 -64.24425507 170.06734848 C-64.24990885 167.04866573 -64.26094487 164.03004528 -64.27325439 161.01138306 C-64.65910956 53.05454779 -64.65910956 53.05454779 -44.875 24.3125 C-44.29105469 23.4565625 -43.70710938 22.600625 -43.10546875 21.71875 C-32.52471318 7.40994817 -17.59309472 -0.11542489 0 0 Z " fill="#D5A513" transform="translate(223.875,108.6875)"/>
</svg>
